<svg width="192" height="64" viewBox="0 0 192 64" fill="none" xmlns="http://www.w3.org/2000/svg">
<path d="M5.77742 17.5358H25.2479V44.5375C25.2479 50.5829 22.6424 53.5986 17.4172 53.5986C13.5656 53.5986 10.1388 51.5881 7.13681 47.5812L0 56.0279C2.01077 58.5829 4.57379 60.5515 7.71738 61.9337C10.861 63.3159 14.3019 64 18.0403 64C24.5823 64 29.5385 62.3246 32.9228 58.9599C36.2929 55.5951 37.9922 50.555 37.9922 43.8394V7.37173H5.77742V17.5358ZM64.7835 20.3839C61.3567 20.3839 58.0149 20.8307 54.7722 21.7103C51.5295 22.6038 48.7399 23.8464 46.4176 25.466L50.8498 33.9825C52.3791 32.7819 54.2341 31.8325 56.4289 31.1344C58.6238 30.4363 60.847 30.0733 63.1126 30.0733C66.3837 30.0733 68.8334 30.7853 70.476 32.2234C72.1044 33.6614 72.9257 35.6998 72.9257 38.3525H63.1126C56.8821 38.3525 52.28 39.4695 49.3063 41.7173C46.3185 43.9651 44.8316 47.0367 44.8316 50.9459C44.8316 53.3892 45.4688 55.5812 46.7291 57.5079C47.9894 59.4346 49.8302 60.9424 52.2233 62.0454C54.6164 63.1344 57.4626 63.6928 60.7337 63.6928C67.0634 63.6928 71.3823 61.7382 73.7046 57.829V63.0646H85.2594V39.0646C85.2594 32.8098 83.4893 28.1326 79.9634 25.0332C76.4375 21.9337 71.3681 20.3839 64.7835 20.3839ZM72.9257 49.7731C72.246 51.644 71.0849 53.0681 69.4423 54.0314C67.7997 54.9948 65.9305 55.4834 63.8206 55.4834C61.6541 55.4834 59.9549 55.0227 58.7229 54.1152C57.4768 53.2077 56.8679 51.9651 56.8679 50.4014C56.8679 47.1204 59.4026 45.4729 64.4578 45.4729H72.9257V49.7731ZM106.627 26.555V21.0122H94.8318V63.0646H107.18V43.2112C107.18 39.3019 108.185 36.37 110.182 34.4154C112.192 32.4607 114.954 31.4834 118.494 31.4834C118.975 31.4834 119.896 31.5393 121.269 31.637V20.3839C117.998 20.3839 115.109 20.9005 112.603 21.9476C110.097 22.9948 108.114 24.5305 106.627 26.555ZM148.981 47.8883L139.508 20.9983H126.763L142.326 63.0506H155.07L170.717 20.9983H158.851L148.981 47.8883ZM178.165 63.0506H190.513V21.0122H178.165V63.0506ZM184.325 15.1483C186.591 15.1483 188.446 14.4782 189.862 13.1518C191.292 11.8255 192 10.1361 192 8.11169C192 6.24084 191.292 4.67714 189.862 3.42059C188.432 2.16405 186.591 1.54974 184.325 1.54974C182.059 1.54974 180.204 2.20593 178.788 3.50436C177.358 4.80279 176.65 6.42234 176.65 8.34904C176.65 10.2757 177.358 11.8953 178.788 13.1937C180.219 14.4921 182.059 15.1483 184.325 15.1483ZM74.0302 15.2182C75.6162 15.2182 76.9331 14.7155 77.981 13.6963C79.0288 12.6771 79.5669 11.3927 79.5669 9.82897C79.5669 8.26527 79.043 6.9808 77.981 5.96161C76.9189 4.94241 75.602 4.43979 74.0302 4.43979C72.4443 4.43979 71.1415 4.94241 70.1078 5.96161C69.0883 6.9808 68.5785 8.26527 68.5785 9.82897C68.5785 11.3927 69.0883 12.6771 70.122 13.6963C71.1415 14.7155 72.4584 15.2182 74.0302 15.2182ZM58.0574 15.2182C59.6433 15.2182 60.9461 14.7155 61.9798 13.6963C63.0135 12.6771 63.5233 11.3927 63.5233 9.82897C63.5233 8.26527 63.0135 6.9808 61.9798 5.96161C60.9461 4.94241 59.6292 4.43979 58.0574 4.43979C56.4714 4.43979 55.1545 4.94241 54.1066 5.96161C53.0446 6.9808 52.5065 8.26527 52.5065 9.82897C52.5065 11.3927 53.0305 12.6771 54.0925 13.6963C55.1545 14.7155 56.4714 15.2182 58.0574 15.2182ZM97.2249 14.2548C98.1311 14.7155 99.1648 14.9529 100.354 14.9529C101.289 14.9529 102.124 14.8133 102.861 14.5201C103.597 14.2269 104.22 13.7941 104.702 13.2216L103.342 11.6859C102.577 12.4538 101.6 12.8447 100.411 12.8447C99.4764 12.8447 98.6975 12.6213 98.0745 12.1606C97.4514 11.6998 97.0549 11.0855 96.9133 10.2897H105.381C105.41 9.96859 105.424 9.71728 105.424 9.54974C105.424 8.46073 105.197 7.49738 104.73 6.65969C104.263 5.82199 103.625 5.17976 102.79 4.71902C101.969 4.25829 101.02 4.0349 99.972 4.0349C98.91 4.0349 97.947 4.27225 97.0974 4.73298C96.2478 5.19372 95.5823 5.84991 95.115 6.67365C94.6335 7.51134 94.3928 8.44677 94.3928 9.47993C94.3928 10.5271 94.6335 11.4764 95.1291 12.3002C95.6247 13.1379 96.3186 13.7941 97.2249 14.2548ZM97.9187 6.74346C98.471 6.26876 99.1648 6.03141 99.972 6.03141C100.793 6.03141 101.473 6.26876 102.025 6.74346C102.577 7.21815 102.903 7.84642 103.016 8.61431H96.8992C97.0266 7.84642 97.3665 7.20419 97.9187 6.74346ZM110.38 0H107.859V14.8133H110.38V0ZM119.995 2.4712C120.349 2.4712 120.632 2.35951 120.858 2.13613C121.085 1.91274 121.198 1.61955 121.198 1.28447C121.198 0.921466 121.085 0.628272 120.858 0.404887C120.632 0.181501 120.335 0.069808 119.995 0.069808C119.641 0.069808 119.357 0.181501 119.131 0.404887C118.904 0.628272 118.791 0.921466 118.791 1.28447C118.791 1.63351 118.904 1.91274 119.131 2.13613C119.343 2.35951 119.641 2.4712 119.995 2.4712ZM117.814 4.0349C116.922 4.0349 116.086 4.1466 115.293 4.36998C114.5 4.59337 113.821 4.92845 113.254 5.34729L114.246 7.1623C114.656 6.82723 115.138 6.57592 115.732 6.38045C116.313 6.19895 116.908 6.10122 117.517 6.10122C118.409 6.10122 119.074 6.29668 119.527 6.70157C119.981 7.10646 120.207 7.67888 120.207 8.41885V8.57243H117.418C115.874 8.57243 114.741 8.86562 114.019 9.43805C113.283 10.0384 112.915 10.8063 112.915 11.7557C112.915 12.37 113.084 12.9145 113.41 13.4031C113.736 13.8918 114.203 14.2688 114.812 14.548C115.421 14.8272 116.129 14.9529 116.936 14.9529C117.743 14.9529 118.437 14.8272 119.003 14.5899C119.57 14.3386 120.023 13.9895 120.32 13.5148V14.8133H122.699V8.55847C122.699 7.03665 122.275 5.90576 121.439 5.15183C120.618 4.41187 119.4 4.0349 117.814 4.0349ZM120.193 11.4764C119.995 12.007 119.641 12.4258 119.145 12.7051C118.649 12.9983 118.097 13.1379 117.46 13.1379C116.809 13.1379 116.313 12.9983 115.945 12.733C115.577 12.4677 115.393 12.1047 115.393 11.6579C115.393 10.7086 116.115 10.2339 117.573 10.2339H120.179V11.4764H120.193ZM116.072 2.4712C116.426 2.4712 116.709 2.35951 116.936 2.13613C117.163 1.91274 117.276 1.61955 117.276 1.28447C117.276 0.921466 117.163 0.628272 116.936 0.404887C116.709 0.181501 116.412 0.069808 116.072 0.069808C115.718 0.069808 115.435 0.181501 115.208 0.404887C114.982 0.628272 114.869 0.921466 114.869 1.28447C114.869 1.63351 114.982 1.91274 115.208 2.13613C115.435 2.35951 115.718 2.4712 116.072 2.4712ZM128.477 9.41012C128.477 8.37696 128.732 7.58115 129.227 7.03665C129.737 6.49215 130.417 6.21291 131.28 6.21291C132.059 6.21291 132.654 6.45026 133.079 6.92496C133.49 7.39965 133.702 8.09773 133.702 9.03316V14.8272H136.222V9.41012C136.222 8.39092 136.477 7.59511 136.987 7.05061C137.497 6.49215 138.177 6.22688 139.026 6.22688C139.805 6.22688 140.4 6.46422 140.825 6.93892C141.235 7.41361 141.448 8.11169 141.448 9.04712V14.8412H143.968V8.69808C143.968 7.13438 143.572 5.97557 142.779 5.19372C141.986 4.41187 140.91 4.02094 139.55 4.02094C138.701 4.02094 137.922 4.17452 137.228 4.49564C136.534 4.80279 135.953 5.24956 135.514 5.80803C135.146 5.22164 134.651 4.77487 134.028 4.48168C133.405 4.18848 132.697 4.0349 131.889 4.0349C131.153 4.0349 130.473 4.16056 129.864 4.41187C129.256 4.66318 128.76 5.02618 128.349 5.51483V4.1466H125.942V14.8133H128.463V9.41012H128.477ZM150.935 8.58639C149.392 8.58639 148.259 8.87958 147.537 9.45201C146.814 10.0244 146.46 10.8063 146.46 11.7557C146.46 12.37 146.63 12.9145 146.956 13.4031C147.282 13.8918 147.749 14.2688 148.358 14.548C148.967 14.8272 149.675 14.9529 150.482 14.9529C151.289 14.9529 151.983 14.8272 152.549 14.5899C153.116 14.3386 153.569 13.9895 153.866 13.5148V14.8133H156.245V8.55847C156.245 7.03665 155.82 5.90576 154.985 5.15183C154.149 4.39791 152.932 4.02094 151.346 4.02094C150.454 4.02094 149.618 4.13264 148.825 4.35602C148.032 4.57941 147.352 4.91448 146.786 5.33333L147.777 7.14834C148.188 6.81326 148.669 6.56195 149.264 6.36649C149.845 6.18499 150.439 6.08726 151.048 6.08726C151.94 6.08726 152.606 6.28272 153.059 6.68761C153.512 7.0925 153.739 7.66492 153.739 8.40489V8.55847H150.935V8.58639ZM153.725 11.4764C153.526 12.007 153.172 12.4119 152.691 12.7051C152.195 12.9983 151.643 13.1379 151.006 13.1379C150.354 13.1379 149.859 12.9983 149.491 12.733C149.122 12.4677 148.938 12.1047 148.938 11.6579C148.938 10.7086 149.661 10.2339 151.119 10.2339H153.725V11.4764ZM153.512 2.4712C153.866 2.4712 154.149 2.35951 154.376 2.13613C154.603 1.91274 154.716 1.61955 154.716 1.28447C154.716 0.921466 154.603 0.628272 154.376 0.404887C154.149 0.181501 153.852 0.069808 153.512 0.069808C153.158 0.069808 152.875 0.181501 152.648 0.404887C152.422 0.628272 152.309 0.921466 152.309 1.28447C152.309 1.63351 152.422 1.91274 152.648 2.13613C152.875 2.35951 153.172 2.4712 153.512 2.4712ZM149.604 2.4712C149.958 2.4712 150.241 2.35951 150.468 2.13613C150.694 1.91274 150.808 1.61955 150.808 1.28447C150.808 0.921466 150.694 0.628272 150.468 0.404887C150.241 0.181501 149.944 0.069808 149.604 0.069808C149.25 0.069808 148.967 0.181501 148.74 0.404887C148.514 0.628272 148.4 0.921466 148.4 1.28447C148.4 1.63351 148.514 1.91274 148.74 2.13613C148.953 2.35951 149.25 2.4712 149.604 2.4712ZM161.994 9.42408C161.994 8.39093 162.263 7.59511 162.801 7.03665C163.339 6.47819 164.076 6.21291 164.996 6.21291C165.818 6.21291 166.455 6.45026 166.894 6.92496C167.333 7.39965 167.559 8.09773 167.559 9.03316V14.8272H170.08V8.69808C170.08 7.14834 169.669 5.98953 168.848 5.20768C168.027 4.42583 166.936 4.0349 165.577 4.0349C164.784 4.0349 164.062 4.16056 163.439 4.41187C162.801 4.66318 162.277 5.04014 161.867 5.5288V4.1466H159.46V14.8133H161.98V9.42408H161.994Z" fill="#1E3986"/>
</svg>
